<?xml version="1.0" encoding="UTF-8" standalone="no"?>
<!DOCTYPE svg PUBLIC "-//W3C//DTD SVG 1.1//EN" "http://www.w3.org/Graphics/SVG/1.1/DTD/svg11.dtd">
<svg width="100%" height="100%" viewBox="0 0 176 75" version="1.1" xmlns="http://www.w3.org/2000/svg" xmlns:xlink="http://www.w3.org/1999/xlink" xml:space="preserve" xmlns:serif="http://www.serif.com/" style="fill-rule:evenodd;clip-rule:evenodd;stroke-linejoin:round;stroke-miterlimit:2;">
    <g id="Layer-1" serif:id="Layer 1" transform="matrix(0.0648457,0,0,0.0648329,-12.5591,-67.825)">
        <g transform="matrix(1,0,0,1,0,30.997)">
            <path d="M1028.14,1356.27L480.773,1356.27L480.773,1269L1028.14,1269L1028.14,1356.27ZM193.68,1015.15L193.68,1953.85L475.481,1953.85L475.481,1612.75L1313.72,1612.75L1313.72,1015.15L193.68,1015.15Z" style="fill-rule:nonzero;"/>
        </g>
        <g transform="matrix(1,0,0,1,1361.31,1984.85)">
            <path d="M0,-938.697L290.873,-253.835L-47.597,-253.835L-47.597,-291.431L-386.063,-291.439L-386.063,0L736.437,0L319.963,-938.697L0,-938.697Z" style="fill:rgb(6,105,57);fill-rule:nonzero;"/>
        </g>
        <g transform="matrix(0.384284,0.923215,0.923215,-0.384284,2150.7,689.96)">
            <path d="M172.834,-511.67L446.356,-511.67L767.207,259.151L534.077,356.19L172.834,-511.67Z" style="fill-rule:nonzero;"/>
        </g>
        <g transform="matrix(0.400819,0.916157,0.916157,-0.400819,2244.05,1097.69)">
            <path d="M121.97,-440.346L399.053,-440.346L673.296,186.495L440.728,288.243L121.97,-440.346Z" style="fill-rule:nonzero;"/>
        </g>
        <g transform="matrix(1,0,0,1,0,1224.55)">
            <path d="M248.826,863.189L354.065,863.189L354.065,846.486L248.826,846.486L248.826,863.189ZM193.676,797.774C193.757,797.278 194.056,797.031 194.563,797.031L407.951,797.031C408.455,797.108 408.71,797.356 408.71,797.774L408.71,911.871C408.71,912.382 408.455,912.63 407.951,912.63L248.574,912.63L248.574,977.642C248.574,978.153 248.276,978.417 247.687,978.417L194.563,978.417C193.97,978.417 193.676,978.153 193.676,977.642L193.676,797.774Z" style="fill:rgb(33,33,33);fill-rule:nonzero;"/>
        </g>
        <g transform="matrix(1,0,0,1,421.358,2202.23)">
            <path d="M0,-179.9C0.081,-180.396 0.383,-180.643 0.887,-180.643L214.275,-180.643C214.783,-180.566 215.035,-180.318 215.035,-179.9L215.035,-131.962C215.035,-131.451 214.783,-131.188 214.275,-131.188L54.898,-131.188L54.898,-114.485L214.275,-114.485C214.783,-114.407 215.035,-114.16 215.035,-113.741L215.035,-65.804C215.035,-65.292 214.783,-65.044 214.275,-65.044L54.898,-65.044L54.898,-48.714L214.275,-48.714C214.783,-48.636 215.035,-48.389 215.035,-47.97L215.035,-0.033C215.035,0.479 214.783,0.743 214.275,0.743L0.887,0.743C0.298,0.743 0,0.479 0,-0.033L0,-179.9Z" style="fill:rgb(33,33,33);fill-rule:nonzero;"/>
        </g>
        <g transform="matrix(1,0,0,1,0,1224.55)">
            <path d="M703.809,863.189L809.179,863.189L809.179,846.486L703.809,846.486L703.809,863.189ZM649.043,797.774C649.124,797.278 649.423,797.031 649.926,797.031L863.19,797.031C863.78,797.108 864.074,797.356 864.074,797.774L864.074,911.871C864.074,912.382 863.78,912.63 863.19,912.63L793.619,912.63L793.619,913.141C839.07,939.543 862.556,953.456 864.074,954.882L864.074,977.642C864.074,978.153 863.78,978.417 863.19,978.417L810.822,978.417C809.977,978.417 790.374,966.641 752.007,943.122C721.139,923.987 705.076,914.242 703.809,913.901L703.809,977.642C703.809,978.153 703.558,978.417 703.054,978.417L649.926,978.417C649.337,978.417 649.043,978.153 649.043,977.642L649.043,797.774Z" style="fill:rgb(33,33,33);fill-rule:nonzero;"/>
        </g>
        <g transform="matrix(1,0,0,1,876.721,2202.23)">
            <path d="M0,-179.9C0.082,-180.396 0.38,-180.643 0.887,-180.643L214.148,-180.643C214.737,-180.566 215.034,-180.318 215.034,-179.9L215.034,-131.962C215.034,-131.451 214.737,-131.188 214.148,-131.188L54.771,-131.188L54.771,-114.485L214.148,-114.485C214.737,-114.407 215.034,-114.16 215.034,-113.741L215.034,-65.804C215.034,-65.292 214.737,-65.044 214.148,-65.044L54.771,-65.044L54.771,-0.033C54.771,0.479 54.515,0.743 54.011,0.743L0.887,0.743C0.294,0.743 0,0.479 0,-0.033L0,-179.9Z" style="fill:rgb(33,33,33);fill-rule:nonzero;"/>
        </g>
        <g transform="matrix(1,0,0,1,0,1224.55)">
            <path d="M1159.17,928.96L1264.66,928.96L1264.66,846.611L1159.17,846.611L1159.17,928.96ZM1318.55,797.031C1319.14,797.108 1319.43,797.402 1319.43,797.914L1319.43,977.642C1319.43,978.153 1319.14,978.417 1318.55,978.417L1105.29,978.417C1104.7,978.417 1104.4,978.153 1104.4,977.642L1104.4,797.914C1104.48,797.325 1104.79,797.031 1105.29,797.031L1318.55,797.031Z" style="fill:rgb(33,33,33);fill-rule:nonzero;"/>
        </g>
        <g transform="matrix(1,0,0,1,0,1224.55)">
            <path d="M1386.86,863.189L1492.22,863.189L1492.22,846.486L1386.86,846.486L1386.86,863.189ZM1332.09,797.774C1332.17,797.278 1332.46,797.031 1332.98,797.031L1546.23,797.031C1546.82,797.108 1547.12,797.356 1547.12,797.774L1547.12,911.871C1547.12,912.382 1546.82,912.63 1546.23,912.63L1476.66,912.63L1476.66,913.141C1522.12,939.543 1545.6,953.456 1547.12,954.882L1547.12,977.642C1547.12,978.153 1546.82,978.417 1546.23,978.417L1493.86,978.417C1493.03,978.417 1473.42,966.641 1435.05,943.122C1404.18,923.987 1388.12,914.242 1386.86,913.901L1386.86,977.642C1386.86,978.153 1386.6,978.417 1386.1,978.417L1332.98,978.417C1332.39,978.417 1332.09,978.153 1332.09,977.642L1332.09,797.774Z" style="fill:rgb(33,33,33);fill-rule:nonzero;"/>
        </g>
        <g transform="matrix(1,0,0,1,1774.04,2202.97)">
            <path d="M0,-181.386C0.511,-181.309 0.759,-181.061 0.759,-180.643L0.759,-0.775C0.759,-0.264 0.511,0 0,0L-53.244,0C-53.748,0 -54.004,-0.264 -54.004,-0.775L-54.004,-131.435L-79.561,-131.435L-79.561,-0.775C-79.561,-0.264 -79.855,0 -80.444,0L-133.564,0C-134.068,0 -134.323,-0.264 -134.323,-0.775L-134.323,-131.435L-159.494,-131.435L-159.494,-0.775C-159.494,-0.264 -159.757,0 -160.253,0L-213.381,0C-213.97,0 -214.264,-0.264 -214.264,-0.775L-214.264,-180.643C-214.187,-181.139 -213.892,-181.386 -213.381,-181.386L0,-181.386Z" style="fill:rgb(33,33,33);fill-rule:nonzero;"/>
        </g>
        <g transform="matrix(1,0,0,1,0,1224.55)">
            <path d="M1842.23,863.189L1947.71,863.189L1947.71,846.486L1842.23,846.486L1842.23,863.189ZM1842.23,912.63L1842.23,977.642C1842.23,978.153 1841.96,978.417 1841.47,978.417L1788.34,978.417C1787.75,978.417 1787.45,978.153 1787.45,977.642L1787.45,797.774C1787.53,797.278 1787.83,797.031 1788.34,797.031L2001.6,797.031C2002.18,797.108 2002.49,797.356 2002.49,797.774L2002.49,977.642C2002.49,978.153 2002.18,978.417 2001.6,978.417L1948.48,978.417C1947.97,978.417 1947.71,978.153 1947.71,977.642L1947.71,912.63L1842.23,912.63Z" style="fill:rgb(33,33,33);fill-rule:nonzero;"/>
        </g>
        <g transform="matrix(1,0,0,1,2229.28,2202.97)">
            <path d="M0,-181.386C0.604,-181.309 0.899,-181.015 0.899,-180.503L0.899,-0.775C0.899,-0.264 0.604,0 0,0L-53.113,0C-53.625,0 -53.888,-0.264 -53.888,-0.775L-53.888,-131.435L-159.37,-131.435L-159.37,-0.775C-159.37,-0.264 -159.617,0 -160.129,0L-213.257,0C-213.845,0 -214.14,-0.264 -214.14,-0.775L-214.14,-180.503C-214.063,-181.092 -213.753,-181.386 -213.257,-181.386L0,-181.386Z" style="fill:rgb(33,33,33);fill-rule:nonzero;"/>
        </g>
        <g transform="matrix(1,0,0,1,2242.82,2202.23)">
            <path d="M0,-179.9C0.093,-180.396 0.388,-180.643 0.884,-180.643L214.264,-180.643C214.775,-180.566 215.038,-180.318 215.038,-179.9L215.038,-131.962C215.038,-131.451 214.775,-131.188 214.264,-131.188L54.894,-131.188L54.894,-48.714L214.264,-48.714C214.775,-48.636 215.038,-48.389 215.038,-47.97L215.038,-0.033C215.038,0.479 214.775,0.743 214.264,0.743L0.884,0.743C0.294,0.743 0,0.479 0,-0.033L0,-179.9Z" style="fill:rgb(33,33,33);fill-rule:nonzero;"/>
        </g>
        <g transform="matrix(1,0,0,1,2470.5,2202.23)">
            <path d="M0,-179.9C0.093,-180.396 0.387,-180.643 0.883,-180.643L214.279,-180.643C214.775,-180.566 215.039,-180.318 215.039,-179.9L215.039,-131.962C215.039,-131.451 214.775,-131.188 214.279,-131.188L54.895,-131.188L54.895,-114.485L214.279,-114.485C214.775,-114.407 215.039,-114.16 215.039,-113.741L215.039,-65.804C215.039,-65.292 214.775,-65.044 214.279,-65.044L54.895,-65.044L54.895,-48.714L214.279,-48.714C214.775,-48.636 215.039,-48.389 215.039,-47.97L215.039,-0.033C215.039,0.479 214.775,0.743 214.279,0.743L0.883,0.743C0.294,0.743 0,0.479 0,-0.033L0,-179.9Z" style="fill:rgb(33,33,33);fill-rule:nonzero;"/>
        </g>
        <g transform="matrix(1,0,0,1,2751.39,1126.7)">
            <path d="M0,-68.967L-31.468,-68.967L-31.468,-80.374L44.448,-80.374L44.448,-68.967L12.98,-68.967L12.98,11.407L0,11.407L0,-68.967Z" style="fill-rule:nonzero;"/>
        </g>
        <g transform="matrix(1,0,0,1,2895.22,1046.33)">
            <path d="M0,91.781L-0.131,24.912L-33.303,80.636L-39.334,80.636L-72.507,25.305L-72.507,91.781L-85.094,91.781L-85.094,0L-74.343,0L-36.057,64.509L1.704,0L12.456,0L12.587,91.781L0,91.781Z" style="fill-rule:nonzero;"/>
        </g>
    </g>
</svg>
